<svg width="21" height="21" viewBox="0 0 21 21" fill="none" xmlns="http://www.w3.org/2000/svg">
<path d="M6.60331 14.1214H17.7642V14.6786H6.17131C5.45409 14.6786 4.86416 14.0886 4.86416 13.3714C4.86416 13.14 4.92363 12.9291 5.02249 12.7561L5.02257 12.7561L5.02818 12.746L6.41676 10.226L6.6021 9.88959L6.43752 9.54259L2.73466 1.73573L2.53138 1.30714H2.05702H0.749878V0.75H2.8871L3.6514 2.37616L3.85396 2.80714H4.33016H19.5427C19.6942 2.80714 19.8213 2.93421 19.8213 3.08571C19.8213 3.14954 19.8052 3.19245 19.7967 3.20733L19.7966 3.20728L19.7912 3.21717L16.1089 9.8926L16.108 9.89423C15.8877 10.2959 15.4585 10.5643 14.9656 10.5643H7.30273H6.86011L6.64617 10.9518L5.72045 12.6283L5.67315 12.714L5.64941 12.809L5.61856 12.9324L5.59616 13.022V13.1143C5.59616 13.6725 6.04509 14.1214 6.60331 14.1214ZM4.87445 18.5143C4.87445 17.7922 5.45898 17.2071 6.17131 17.2071C6.88852 17.2071 7.47845 17.7971 7.47845 18.5143C7.47845 19.2315 6.88852 19.8214 6.17131 19.8214C5.45898 19.8214 4.87445 19.2364 4.87445 18.5143ZM15.1602 18.5143C15.1602 17.7922 15.7447 17.2071 16.457 17.2071C17.1742 17.2071 17.7642 17.7971 17.7642 18.5143C17.7642 19.2315 17.1742 19.8214 16.457 19.8214C15.7447 19.8214 15.1602 19.2364 15.1602 18.5143Z" stroke="#C48B76" stroke-width="1.5"/>
</svg>
