<svg width="21" height="21" viewBox="0 0 21 21" fill="none" xmlns="http://www.w3.org/2000/svg">
<path d="M6.17131 16.4571C5.03988 16.4571 4.12445 17.3829 4.12445 18.5143C4.12445 19.6457 5.03988 20.5714 6.17131 20.5714C7.30273 20.5714 8.22845 19.6457 8.22845 18.5143C8.22845 17.3829 7.30273 16.4571 6.17131 16.4571ZM-0.00012207 0V2.05714H2.05702L5.75988 9.864L4.37131 12.384C4.20673 12.672 4.11416 13.0114 4.11416 13.3714C4.11416 14.5029 5.03988 15.4286 6.17131 15.4286H18.5142V13.3714H6.60331C6.45931 13.3714 6.34616 13.2583 6.34616 13.1143L6.37702 12.9909L7.30273 11.3143H14.9656C15.737 11.3143 16.4159 10.8926 16.7656 10.2549L20.4479 3.57943C20.5302 3.43543 20.5713 3.26057 20.5713 3.08571C20.5713 2.52 20.1084 2.05714 19.5427 2.05714H4.33016L3.36331 0H-0.00012207ZM16.457 16.4571C15.3256 16.4571 14.4102 17.3829 14.4102 18.5143C14.4102 19.6457 15.3256 20.5714 16.457 20.5714C17.5884 20.5714 18.5142 19.6457 18.5142 18.5143C18.5142 17.3829 17.5884 16.4571 16.457 16.4571Z" fill="#C48B76"/>
</svg>
