<svg width="18" height="20" viewBox="0 0 22 23" fill="none" xmlns="http://www.w3.org/2000/svg">
<path d="M18 2.25H14.305C13.6755 1.07002 12.4404 0.25 11 0.25C9.55958 0.25 8.32449 1.07002 7.695 2.25H4C2.48579 2.25 1.25 3.48579 1.25 5V19C1.25 20.5142 2.48579 21.75 4 21.75H18C19.5142 21.75 20.75 20.5142 20.75 19V5C20.75 3.48579 19.5142 2.25 18 2.25ZM11 3.75C11.1358 3.75 11.25 3.86421 11.25 4C11.25 4.13579 11.1358 4.25 11 4.25C10.8642 4.25 10.75 4.13579 10.75 4C10.75 3.86421 10.8642 3.75 11 3.75ZM12.25 16.25H6.75V15.75H12.25V16.25ZM15.25 12.25H6.75V11.75H15.25V12.25ZM15.25 8.25H6.75V7.75H15.25V8.25Z" stroke="#C48B76" stroke-width="1.5"/>
</svg>
