<svg width="22" height="22" viewBox="0 0 22 22" fill="none" xmlns="http://www.w3.org/2000/svg">
<path d="M6.88572 17.1714C5.75429 17.1714 4.83887 18.0971 4.83887 19.2285C4.83887 20.3599 5.75429 21.2857 6.88572 21.2857C8.01715 21.2857 8.94287 20.3599 8.94287 19.2285C8.94287 18.0971 8.01715 17.1714 6.88572 17.1714ZM0.714294 0.714233V2.77138H2.77144L6.47429 10.5782L5.08572 13.0982C4.92115 13.3862 4.82858 13.7257 4.82858 14.0857C4.82858 15.2171 5.75429 16.1428 6.88572 16.1428H19.2286V14.0857H7.31772C7.17372 14.0857 7.06058 13.9725 7.06058 13.8285L7.09144 13.7051L8.01715 12.0285H15.68C16.4514 12.0285 17.1303 11.6068 17.48 10.9691L21.1623 4.29366C21.2446 4.14966 21.2857 3.9748 21.2857 3.79995C21.2857 3.23423 20.8229 2.77138 20.2572 2.77138H5.04458L4.07772 0.714233H0.714294ZM17.1714 17.1714C16.04 17.1714 15.1246 18.0971 15.1246 19.2285C15.1246 20.3599 16.04 21.2857 17.1714 21.2857C18.3029 21.2857 19.2286 20.3599 19.2286 19.2285C19.2286 18.0971 18.3029 17.1714 17.1714 17.1714Z" fill="#437056"/>
</svg>
