<svg width="194" height="162" viewBox="0 0 194 162" fill="none" xmlns="http://www.w3.org/2000/svg">
<g clip-path="url(#clip0)">
<path d="M79.9368 38.1211H79.0559V13.9751C79.0559 12.1399 78.6947 10.3226 77.9928 8.62704C77.291 6.93151 76.2622 5.3909 74.9653 4.0932C73.6685 2.79549 72.1289 1.76609 70.4344 1.06378C68.74 0.361467 66.9239 -5.74158e-06 65.0898 0H13.9661C12.1321 -5.74159e-06 10.316 0.361467 8.62151 1.06378C6.92707 1.76609 5.38745 2.79549 4.09058 4.0932C2.7937 5.39091 1.76496 6.93151 1.0631 8.62705C0.361238 10.3226 -2.86897e-06 12.1399 0 13.9751V146.442C-1.72138e-06 148.277 0.361241 150.095 1.0631 151.79C1.76497 153.486 2.79371 155.026 4.09058 156.324C5.38745 157.622 6.92707 158.651 8.62151 159.353C10.316 160.056 12.1321 160.417 13.9661 160.417H65.0898C66.9239 160.417 68.74 160.056 70.4344 159.353C72.1288 158.651 73.6685 157.622 74.9653 156.324C76.2622 155.026 77.291 153.486 77.9928 151.79C78.6947 150.095 79.0559 148.277 79.0559 146.442V55.3087H79.9368V38.1211Z" fill="#E6E6E6"/>
<path d="M65.6534 3.63586H58.9801C59.287 4.38874 59.4041 5.20559 59.3212 6.01444C59.2383 6.8233 58.9578 7.59933 58.5046 8.27419C58.0513 8.94905 57.4392 9.50201 56.7221 9.88437C56.005 10.2667 55.2049 10.4668 54.3923 10.4668H25.1042C24.2916 10.4668 23.4915 10.2667 22.7744 9.88438C22.0573 9.50201 21.4451 8.94905 20.9919 8.27419C20.5386 7.59933 20.2582 6.8233 20.1753 6.01444C20.0924 5.20559 20.2095 4.38874 20.5164 3.63586H14.2835C12.9138 3.63586 11.5576 3.90581 10.2922 4.43028C9.02681 4.95476 7.87705 5.7235 6.90856 6.69261C5.94007 7.66173 5.17183 8.81223 4.64768 10.0784C4.12354 11.3446 3.85376 12.7017 3.85376 14.0723V146.345C3.85376 147.716 4.12354 149.073 4.64768 150.339C5.17182 151.605 5.94007 152.756 6.90856 153.725C7.87705 154.694 9.02681 155.463 10.2922 155.987C11.5576 156.511 12.9138 156.781 14.2835 156.781H65.6534C67.023 156.781 68.3793 156.511 69.6447 155.987C70.9101 155.463 72.0598 154.694 73.0283 153.725C73.9968 152.756 74.7651 151.605 75.2892 150.339C75.8134 149.073 76.0831 147.716 76.0831 146.345V14.0723C76.0831 12.7017 75.8134 11.3446 75.2892 10.0784C74.7651 8.81223 73.9968 7.66173 73.0283 6.69261C72.0598 5.7235 70.9101 4.95476 69.6447 4.43028C68.3793 3.90581 67.023 3.63586 65.6534 3.63586Z" fill="white"/>
<path d="M24.8339 30.5254H21.7667C21.6589 30.5254 21.5555 30.5683 21.4792 30.6446C21.4029 30.7209 21.3601 30.8244 21.3601 30.9323V32.2794C21.3601 32.3873 21.4029 32.4908 21.4792 32.5671C21.5555 32.6435 21.6589 32.6863 21.7667 32.6863H22.275V34.7048H24.3256V32.6863H24.8339C24.9417 32.6863 25.0452 32.6435 25.1214 32.5671C25.1977 32.4908 25.2405 32.3873 25.2405 32.2794V30.9323C25.2405 30.8244 25.1977 30.7209 25.1214 30.6446C25.0452 30.5683 24.9417 30.5254 24.8339 30.5254Z" fill="#E6E6E6"/>
<path d="M27.9059 42.8543C26.0275 40.1039 25.0672 36.8292 25.1626 33.4993C25.1644 33.4224 25.1394 33.3474 25.0921 33.2868C25.0448 33.2263 24.978 33.184 24.9031 33.1672V32.5851H21.6637V33.1591H21.6191C21.531 33.1592 21.4465 33.1943 21.3842 33.2568C21.322 33.3193 21.2871 33.4039 21.2872 33.4921C21.2872 33.5002 21.2875 33.5083 21.2881 33.5163C21.5433 37.076 20.6815 40.2682 18.7029 43.0931C18.589 43.2554 18.5308 43.4503 18.5371 43.6485L18.8913 54.6121C18.8998 54.8566 19.0024 55.0884 19.1776 55.2591C19.3528 55.4298 19.5871 55.5262 19.8316 55.5281H27.1585C27.4058 55.5261 27.6425 55.4275 27.8183 55.2534C27.994 55.0793 28.0949 54.8434 28.0994 54.5959L28.2359 43.9512C28.2399 43.5605 28.1248 43.1779 27.9059 42.8543Z" fill="#E6E6E6"/>
<path d="M26.7461 46.4961H20.3687C20.2743 46.4961 20.181 46.5165 20.0952 46.556C20.0094 46.5954 19.9332 46.653 19.8717 46.7247C19.8103 46.7964 19.765 46.8805 19.7391 46.9713C19.7132 47.0622 19.7072 47.1575 19.7215 47.2509L20.6853 53.5191H26.2191L27.3897 47.272C27.4074 47.1774 27.4041 47.08 27.3799 46.9868C27.3558 46.8937 27.3114 46.8069 27.25 46.7328C27.1885 46.6588 27.1115 46.5992 27.0244 46.5582C26.9373 46.5173 26.8423 46.4961 26.7461 46.4961Z" fill="white"/>
<path d="M58.977 63.3682H55.9099C55.802 63.3682 55.6986 63.411 55.6223 63.4873C55.5461 63.5637 55.5032 63.6671 55.5032 63.7751V65.1222C55.5032 65.2301 55.5461 65.3336 55.6223 65.4099C55.6986 65.4862 55.802 65.5291 55.9099 65.5291H56.4181V67.5475H58.4687V65.5291H58.977C59.0849 65.5291 59.1883 65.4862 59.2646 65.4099C59.3408 65.3336 59.3837 65.2301 59.3837 65.1222V63.7751C59.3837 63.6671 59.3408 63.5636 59.2646 63.4873C59.1883 63.411 59.0849 63.3682 58.977 63.3682Z" fill="#E6E6E6"/>
<path d="M62.0491 75.697C60.1707 72.9466 59.2104 69.6719 59.3058 66.3419C59.3075 66.2651 59.2826 66.19 59.2353 66.1295C59.188 66.069 59.1212 66.0267 59.0462 66.0098V65.4277H55.8069V66.0017H55.7623C55.7187 66.0018 55.6754 66.0104 55.6351 66.0272C55.5948 66.044 55.5582 66.0685 55.5274 66.0995C55.4966 66.1304 55.4721 66.1671 55.4555 66.2075C55.4388 66.2478 55.4303 66.2911 55.4304 66.3348C55.4304 66.3428 55.4307 66.3509 55.4313 66.359C55.6865 69.9186 54.8247 73.1109 52.846 75.9357C52.7322 76.0981 52.674 76.293 52.6803 76.4912L53.0345 87.4547C53.043 87.6993 53.1455 87.9311 53.3208 88.1018C53.496 88.2724 53.7303 88.3688 53.9748 88.3708H61.3017C61.549 88.3687 61.7857 88.2702 61.9615 88.0961C62.1372 87.9219 62.2381 87.686 62.2426 87.4386L62.3791 76.7939C62.3831 76.4032 62.268 76.0205 62.0491 75.697Z" fill="#E6E6E6"/>
<path d="M60.8892 79.3387H54.5118C54.4174 79.3387 54.3241 79.3592 54.2383 79.3986C54.1526 79.4381 54.0763 79.4956 54.0149 79.5673C53.9534 79.639 53.9082 79.7232 53.8822 79.814C53.8563 79.9048 53.8503 80.0002 53.8647 80.0935L54.8284 86.3618H60.3622L61.5328 80.1147C61.5505 80.0201 61.5472 79.9227 61.523 79.8295C61.4989 79.7363 61.4545 79.6496 61.3931 79.5755C61.3317 79.5014 61.2546 79.4418 61.1676 79.4009C61.0805 79.36 60.9855 79.3387 60.8892 79.3387H60.8892Z" fill="white"/>
<path d="M20.5218 109.798H19.0669C19.0158 109.798 18.9667 109.818 18.9305 109.855C18.8943 109.891 18.874 109.94 18.874 109.991V110.63C18.874 110.681 18.8943 110.73 18.9305 110.766C18.9667 110.803 19.0158 110.823 19.0669 110.823H19.308V111.78H20.2807V110.823H20.5218C20.573 110.823 20.622 110.803 20.6582 110.766C20.6944 110.73 20.7147 110.681 20.7147 110.63V109.991C20.7147 109.94 20.6944 109.891 20.6582 109.855C20.622 109.818 20.573 109.798 20.5218 109.798Z" fill="#E6E6E6"/>
<path d="M21.9791 115.646C21.0881 114.341 20.6326 112.788 20.6778 111.209C20.6786 111.172 20.6668 111.136 20.6444 111.108C20.6219 111.079 20.5902 111.059 20.5547 111.051V110.775H19.0181V111.047H18.997C18.9762 111.047 18.9558 111.051 18.9366 111.059C18.9175 111.067 18.9001 111.079 18.8855 111.094C18.8709 111.108 18.8593 111.126 18.8514 111.145C18.8435 111.164 18.8395 111.184 18.8395 111.205C18.8395 111.209 18.8396 111.213 18.8399 111.217C18.9818 112.828 18.5472 114.438 17.6136 115.759C17.5596 115.836 17.532 115.929 17.535 116.023L17.703 121.223C17.707 121.339 17.7557 121.449 17.8388 121.53C17.9219 121.611 18.0331 121.657 18.1491 121.658H21.6245C21.7418 121.657 21.8541 121.61 21.9375 121.528C22.0209 121.445 22.0687 121.333 22.0708 121.216L22.1356 116.166C22.1375 115.981 22.0829 115.8 21.9791 115.646Z" fill="#E6E6E6"/>
<path d="M21.4789 117.558H18.1627V119.217H21.4789V117.558Z" fill="white"/>
<path d="M27.2944 109.798H25.8395C25.7883 109.798 25.7393 109.818 25.7031 109.855C25.6669 109.891 25.6466 109.94 25.6466 109.991V110.63C25.6466 110.681 25.6669 110.73 25.7031 110.766C25.7393 110.803 25.7883 110.823 25.8395 110.823H26.0806V111.78H27.0533V110.823H27.2944C27.3455 110.823 27.3946 110.803 27.4308 110.766C27.4669 110.73 27.4873 110.681 27.4873 110.63V109.991C27.4873 109.94 27.4669 109.891 27.4308 109.855C27.3946 109.818 27.3455 109.798 27.2944 109.798Z" fill="#E6E6E6"/>
<path d="M28.7516 115.646C27.8606 114.341 27.4051 112.788 27.4503 111.209C27.4512 111.172 27.4393 111.136 27.4169 111.108C27.3944 111.079 27.3628 111.059 27.3272 111.051V110.775H25.7907V111.047H25.7695C25.7488 111.047 25.7283 111.051 25.7092 111.059C25.69 111.067 25.6727 111.079 25.6581 111.094C25.6434 111.108 25.6318 111.126 25.6239 111.145C25.616 111.164 25.612 111.184 25.612 111.205C25.612 111.209 25.6122 111.213 25.6125 111.217C25.7543 112.828 25.3197 114.438 24.3862 115.759C24.3322 115.836 24.3046 115.929 24.3075 116.023L24.4755 121.223C24.4796 121.339 24.5282 121.449 24.6113 121.53C24.6944 121.611 24.8056 121.657 24.9216 121.658H28.397C28.5144 121.657 28.6267 121.61 28.71 121.528C28.7934 121.445 28.8412 121.333 28.8434 121.216L28.9081 116.166C28.91 115.981 28.8554 115.8 28.7516 115.646Z" fill="#E6E6E6"/>
<path d="M28.2514 117.558H24.9352V119.217H28.2514V117.558Z" fill="white"/>
<path d="M34.0669 109.798H32.612C32.5609 109.798 32.5118 109.818 32.4756 109.855C32.4395 109.891 32.4191 109.94 32.4191 109.991V110.63C32.4191 110.681 32.4395 110.73 32.4756 110.766C32.5118 110.803 32.5609 110.823 32.612 110.823H32.8531V111.78H33.8258V110.823H34.0669C34.1181 110.823 34.1671 110.803 34.2033 110.766C34.2395 110.73 34.2598 110.681 34.2598 110.63V109.991C34.2598 109.94 34.2395 109.891 34.2033 109.855C34.1671 109.818 34.1181 109.798 34.0669 109.798Z" fill="#E6E6E6"/>
<path d="M35.5241 115.646C34.6331 114.341 34.1776 112.788 34.2229 111.209C34.2237 111.172 34.2118 111.136 34.1894 111.108C34.1669 111.079 34.1353 111.059 34.0997 111.051V110.775H32.5632V111.047H32.542C32.5213 111.047 32.5008 111.051 32.4817 111.059C32.4626 111.067 32.4452 111.079 32.4306 111.094C32.416 111.108 32.4044 111.126 32.3965 111.145C32.3886 111.164 32.3845 111.184 32.3845 111.205C32.3845 111.209 32.3847 111.213 32.385 111.217C32.5268 112.828 32.0922 114.438 31.1587 115.759C31.1047 115.836 31.0771 115.929 31.0801 116.023L31.2481 121.223C31.2521 121.339 31.3007 121.449 31.3839 121.53C31.467 121.611 31.5781 121.657 31.6941 121.658H35.1696C35.2869 121.657 35.3992 121.61 35.4825 121.528C35.5659 121.445 35.6138 121.333 35.6159 121.216L35.6806 116.166C35.6825 115.981 35.6279 115.8 35.5241 115.646Z" fill="#E6E6E6"/>
<path d="M35.0239 117.558H31.7078V119.217H35.0239V117.558Z" fill="white"/>
<path d="M53.6487 97.0924H50.5816C50.5282 97.0924 50.4753 97.1029 50.426 97.1234C50.3766 97.1438 50.3318 97.1738 50.294 97.2116C50.2563 97.2494 50.2263 97.2942 50.2059 97.3436C50.1854 97.393 50.1749 97.4459 50.1749 97.4993V98.8464C50.1749 98.9544 50.2178 99.0579 50.294 99.1342C50.3703 99.2105 50.4737 99.2534 50.5816 99.2534H51.0898V101.272H53.1404V99.2534H53.6487C53.7566 99.2533 53.86 99.2105 53.9363 99.1342C54.0125 99.0579 54.0554 98.9544 54.0554 98.8464V97.4993C54.0554 97.4459 54.0448 97.393 54.0244 97.3436C54.004 97.2942 53.974 97.2494 53.9363 97.2116C53.8985 97.1738 53.8537 97.1438 53.8043 97.1234C53.755 97.1029 53.7021 97.0924 53.6487 97.0924Z" fill="#E6E6E6"/>
<path d="M56.7207 109.421C54.8423 106.671 53.882 103.396 53.9775 100.066C53.9792 99.9894 53.9542 99.9144 53.9069 99.8539C53.8596 99.7933 53.7928 99.751 53.7179 99.7342V99.1521H50.4786V99.7261H50.4339C50.3903 99.7262 50.3471 99.7348 50.3068 99.7516C50.2665 99.7683 50.2299 99.7929 50.199 99.8238C50.1682 99.8547 50.1438 99.8914 50.1271 99.9318C50.1105 99.9722 50.1019 100.015 50.102 100.059C50.102 100.067 50.1023 100.075 50.1029 100.083C50.3581 103.643 49.4964 106.835 47.5177 109.66C47.4038 109.822 47.3456 110.017 47.3519 110.216L47.7061 121.179C47.7146 121.424 47.8172 121.655 47.9924 121.826C48.1676 121.997 48.4019 122.093 48.6465 122.095H55.9733C56.2206 122.093 56.4573 121.995 56.6331 121.82C56.8089 121.646 56.9097 121.41 56.9142 121.163L57.0507 110.518C57.0547 110.128 56.9396 109.745 56.7207 109.421Z" fill="#E6E6E6"/>
<path d="M55.5609 113.063H49.1835C49.0891 113.063 48.9958 113.084 48.91 113.123C48.8243 113.162 48.748 113.22 48.6866 113.292C48.6251 113.363 48.5798 113.448 48.5539 113.538C48.528 113.629 48.522 113.725 48.5364 113.818L49.5001 120.086H55.0339L56.2045 113.839C56.2222 113.744 56.2189 113.647 56.1947 113.554C56.1706 113.461 56.1262 113.374 56.0648 113.3C56.0033 113.226 55.9263 113.166 55.8393 113.125C55.7522 113.084 55.6572 113.063 55.5609 113.063Z" fill="white"/>
<path d="M55.3232 56.9395H37.04C38.3183 50.0242 38.0242 41.6736 37.04 32.6932H55.3232C54.3652 41.6737 54.0789 50.0242 55.3232 56.9395Z" fill="#E6E6E6"/>
<path d="M46.2917 48.5635C48.7249 48.5635 50.6973 46.5898 50.6973 44.1551C50.6973 41.7204 48.7249 39.7467 46.2917 39.7467C43.8586 39.7467 41.8862 41.7204 41.8862 44.1551C41.8862 46.5898 43.8586 48.5635 46.2917 48.5635Z" fill="white"/>
<path d="M38.582 89.1209H20.2988C21.5771 82.2055 21.283 73.855 20.2988 64.8746H38.582C37.624 73.8551 37.3377 82.2056 38.582 89.1209Z" fill="#E6E6E6"/>
<path d="M29.5505 80.7449C31.9837 80.7449 33.9561 78.7712 33.9561 76.3365C33.9561 73.9018 31.9837 71.9281 29.5505 71.9281C27.1174 71.9281 25.145 73.9018 25.145 76.3365C25.145 78.7712 27.1174 80.7449 29.5505 80.7449Z" fill="white"/>
<path d="M65.6763 58.4825H47.3931C48.6714 51.5671 48.3773 43.2166 47.3931 34.2362H65.6763C64.7183 43.2166 64.432 51.5671 65.6763 58.4825Z" fill="#E6E6E6"/>
<path d="M56.6448 50.1065C59.0779 50.1065 61.0504 48.1328 61.0504 45.6981C61.0504 43.2634 59.0779 41.2897 56.6448 41.2897C54.2116 41.2897 52.2392 43.2634 52.2392 45.6981C52.2392 48.1328 54.2116 50.1065 56.6448 50.1065Z" fill="white"/>
<path d="M65.6763 57.3803H47.3931C48.6714 50.4649 48.3773 42.1144 47.3931 33.134H65.6763C64.7183 42.1145 64.432 50.465 65.6763 57.3803Z" fill="#E6E6E6"/>
<path d="M56.6448 49.0043C59.0779 49.0043 61.0504 47.0306 61.0504 44.5959C61.0504 42.1612 59.0779 40.1875 56.6448 40.1875C54.2116 40.1875 52.2392 42.1612 52.2392 44.5959C52.2392 47.0306 54.2116 49.0043 56.6448 49.0043Z" fill="white"/>
<path d="M65.6763 58.4825H47.3931C48.6714 51.5671 48.3773 43.2166 47.3931 34.2362H65.6763C64.7183 43.2166 64.432 51.5671 65.6763 58.4825Z" fill="#E6E6E6"/>
<path d="M56.6448 50.1065C59.0779 50.1065 61.0504 48.1328 61.0504 45.6981C61.0504 43.2634 59.0779 41.2897 56.6448 41.2897C54.2116 41.2897 52.2392 43.2634 52.2392 45.6981C52.2392 48.1328 54.2116 50.1065 56.6448 50.1065Z" fill="white"/>
<path d="M69.8615 55.6169H9.94568V62.2296H69.8615V55.6169Z" fill="#E6E6E6"/>
<path d="M69.8615 88.4596H9.94568V95.0722H69.8615V88.4596Z" fill="#E6E6E6"/>
<path d="M69.8615 121.302H9.94568V127.915H69.8615V121.302Z" fill="#E6E6E6"/>
<path d="M174.088 148.129L159.161 137.565C164.195 132.658 168.774 125.67 173.153 117.77L188.08 128.334C182.115 135.112 177.062 141.765 174.088 148.129Z" fill="#C48B76"/>
<path d="M174.092 136.882C176.525 136.882 178.497 134.908 178.497 132.473C178.497 130.039 176.525 128.065 174.092 128.065C171.659 128.065 169.686 130.039 169.686 132.473C169.686 134.908 171.659 136.882 174.092 136.882Z" fill="white"/>
<path d="M102.082 99.9215H100.444C100.386 99.9215 100.331 99.9444 100.29 99.9852C100.249 100.026 100.226 100.081 100.226 100.139V100.859C100.226 100.887 100.232 100.915 100.243 100.942C100.254 100.968 100.27 100.992 100.29 101.012C100.31 101.032 100.334 101.048 100.36 101.059C100.387 101.07 100.415 101.076 100.444 101.076H100.715V102.154H101.811V101.076H102.082C102.14 101.076 102.195 101.053 102.236 101.012C102.276 100.971 102.299 100.916 102.299 100.859V100.139C102.299 100.081 102.276 100.026 102.236 99.9852C102.195 99.9444 102.14 99.9215 102.082 99.9215Z" fill="#E6E6E6"/>
<path d="M103.723 106.508C102.72 105.038 102.207 103.289 102.258 101.51C102.259 101.469 102.245 101.429 102.22 101.397C102.195 101.364 102.159 101.342 102.119 101.333V101.022H100.389V101.328H100.365C100.341 101.328 100.318 101.333 100.297 101.342C100.275 101.351 100.256 101.364 100.239 101.381C100.223 101.397 100.21 101.417 100.201 101.438C100.192 101.46 100.187 101.483 100.187 101.506C100.187 101.511 100.188 101.515 100.188 101.519C100.348 103.334 99.8583 105.147 98.8069 106.635C98.7461 106.722 98.715 106.826 98.7183 106.932L98.9075 112.789C98.9121 112.92 98.9669 113.043 99.0605 113.135C99.1541 113.226 99.2793 113.277 99.4099 113.278H103.324C103.456 113.277 103.583 113.225 103.676 113.131C103.77 113.038 103.824 112.912 103.827 112.78L103.9 107.094C103.902 106.885 103.84 106.681 103.723 106.508Z" fill="#C48B76"/>
<path opacity="0.2" d="M101.741 100.156C101.741 100.28 101.691 100.4 101.603 100.488C101.515 100.576 101.396 100.625 101.272 100.625C101.148 100.625 101.028 100.576 100.94 100.488C100.853 100.4 100.803 100.28 100.803 100.156" fill="black"/>
<path d="M102.961 107.636H99.6567V109.84H102.961V107.636Z" fill="white"/>
<path d="M153.933 122.802H150.866C150.758 122.802 150.655 122.845 150.579 122.921C150.502 122.997 150.46 123.101 150.46 123.209V124.556C150.46 124.664 150.502 124.767 150.579 124.844C150.655 124.92 150.758 124.963 150.866 124.963H151.375V126.981H153.425V124.963H153.933C154.041 124.963 154.145 124.92 154.221 124.844C154.297 124.767 154.34 124.664 154.34 124.556V123.209C154.34 123.101 154.297 122.997 154.221 122.921C154.145 122.845 154.041 122.802 153.933 122.802Z" fill="#E6E6E6"/>
<path d="M157.005 135.131C155.127 132.38 154.167 129.106 154.262 125.776C154.264 125.699 154.239 125.624 154.192 125.563C154.144 125.503 154.078 125.46 154.003 125.444V124.862H150.763V125.436H150.719C150.675 125.436 150.632 125.444 150.591 125.461C150.551 125.478 150.515 125.502 150.484 125.533C150.453 125.564 150.428 125.601 150.412 125.641C150.395 125.682 150.387 125.725 150.387 125.769C150.387 125.777 150.387 125.785 150.388 125.793C150.643 129.352 149.781 132.545 147.802 135.37C147.689 135.532 147.63 135.727 147.637 135.925L147.991 146.889C147.999 147.133 148.102 147.365 148.277 147.536C148.452 147.706 148.687 147.803 148.931 147.805H156.258C156.505 147.803 156.742 147.704 156.918 147.53C157.094 147.356 157.194 147.12 157.199 146.872L157.335 136.228C157.339 135.837 157.224 135.454 157.005 135.131Z" fill="#C48B76"/>
<path opacity="0.2" d="M153.294 123.241C153.294 123.474 153.202 123.697 153.037 123.862C152.873 124.026 152.649 124.119 152.417 124.119C152.184 124.119 151.961 124.026 151.796 123.862C151.632 123.697 151.539 123.474 151.539 123.241" fill="black"/>
<path d="M155.846 138.773H149.468C149.374 138.773 149.281 138.793 149.195 138.832C149.109 138.872 149.033 138.929 148.971 139.001C148.91 139.073 148.865 139.157 148.839 139.248C148.813 139.339 148.807 139.434 148.821 139.527L149.785 145.796H155.319L156.489 139.549C156.507 139.454 156.504 139.357 156.479 139.263C156.455 139.17 156.411 139.083 156.349 139.009C156.288 138.935 156.211 138.876 156.124 138.835C156.037 138.794 155.942 138.773 155.846 138.773Z" fill="white"/>
<path d="M145.182 148.112H126.899C128.177 141.197 127.883 132.846 126.899 123.866H145.182C144.224 132.846 143.938 141.197 145.182 148.112Z" fill="#C48B76"/>
<path d="M136.151 139.736C138.584 139.736 140.557 137.762 140.557 135.328C140.557 132.893 138.584 130.919 136.151 130.919C133.718 130.919 131.745 132.893 131.745 135.328C131.745 137.762 133.718 139.736 136.151 139.736Z" fill="white"/>
<path d="M70.4 71.8057L74.5043 71.4324L77.1163 65.0852L72.4523 62.4716L70.4 71.8057Z" fill="#FFB8B8"/>
<path d="M108.068 89.2306C108.204 88.89 108.258 88.5219 108.224 88.1565C108.191 87.7911 108.071 87.4389 107.874 87.129C107.678 86.8191 107.411 86.5603 107.095 86.3739C106.779 86.1875 106.423 86.079 106.057 86.0571L99.6847 85.6769L98.7464 88.7991L105.307 90.6019C105.855 90.7526 106.439 90.696 106.949 90.4431C107.458 90.1902 107.856 89.7586 108.068 89.2306Z" fill="#FFB8B8"/>
<path d="M101.225 90.6544L101.155 84.7958L86.9996 82.5357L76.0947 70.0208C75.5273 69.3697 74.7433 68.9464 73.8879 68.8293C73.0326 68.7123 72.1638 68.9094 71.4425 69.3842C71.0059 69.6717 70.6376 70.0517 70.3638 70.4972C70.09 70.9428 69.9173 71.4431 69.858 71.9628C69.7987 72.4825 69.8542 73.0088 70.0205 73.5047C70.1869 74.0006 70.46 74.4538 70.8207 74.8324L79.8172 85.911L101.225 90.6544Z" fill="#B34947"/>
<path d="M67.2283 156.561H70.9596L80.2146 114.69L89.8026 127.624L95.3996 155.627H98.9443L98.1981 125.571L85.6982 93.4612H73.385C70.0201 99.5548 67.3804 105.836 70.3999 112.316L67.2283 156.561Z" fill="#2E2E2E"/>
<path d="M93.1123 159.104C93.071 159.236 93.0583 159.375 93.0751 159.513C93.0919 159.65 93.1377 159.782 93.2096 159.901C93.2814 160.019 93.3776 160.12 93.4918 160.199C93.6059 160.277 93.7354 160.33 93.8716 160.354L103.002 161.975C103.363 162.041 103.735 161.973 104.049 161.783C104.363 161.593 104.597 161.295 104.706 160.945C104.813 160.61 104.798 160.249 104.664 159.924C104.531 159.599 104.287 159.332 103.976 159.169C101.969 158.137 100.241 156.634 98.9408 154.788C97.9373 155.723 96.8157 155.635 95.6247 154.946L94.3614 155.104L93.1123 159.104Z" fill="#2E2E2E"/>
<path d="M65.5007 159.104C65.4594 159.236 65.4468 159.375 65.4636 159.513C65.4803 159.65 65.5262 159.782 65.598 159.901C65.6698 160.019 65.766 160.12 65.8802 160.199C65.9943 160.277 66.1238 160.33 66.26 160.354L75.3905 161.975C75.7513 162.041 76.1238 161.973 76.4377 161.783C76.7516 161.593 76.9853 161.295 77.0947 160.945C77.2011 160.61 77.1863 160.249 77.0527 159.924C76.9192 159.599 76.6756 159.332 76.3646 159.169C74.357 158.137 72.6292 156.634 71.3292 154.788C70.3257 155.723 69.2041 155.635 68.0131 154.946L66.7498 155.104L65.5007 159.104Z" fill="#2E2E2E"/>
<path d="M77.2095 67.4187C80.0946 67.4187 82.4333 65.0784 82.4333 62.1915C82.4333 59.3046 80.0946 56.9644 77.2095 56.9644C74.3245 56.9644 71.9857 59.3046 71.9857 62.1915C71.9857 65.0784 74.3245 67.4187 77.2095 67.4187Z" fill="#FFB8B8"/>
<path d="M72.5454 94.8613L86.1646 94.488L82.165 81.8918C84.6506 77.9045 82.149 73.9213 78.6088 69.9389L75.8103 68.0721L71.3328 67.6987C69.3941 69.7745 68.3334 72.5203 68.3727 75.3611C68.4614 81.4442 69.5378 88.0663 72.5454 94.8613Z" fill="#B34947"/>
<path d="M103.836 103.34C104.096 103.081 104.29 102.763 104.402 102.414C104.515 102.065 104.543 101.694 104.485 101.332C104.426 100.97 104.282 100.626 104.065 100.331C103.848 100.035 103.564 99.7953 103.236 99.6311L97.5262 96.7729L95.4361 99.274L100.759 103.514C101.204 103.868 101.763 104.046 102.331 104.014C102.898 103.982 103.434 103.742 103.836 103.34Z" fill="#FFB8B8"/>
<path d="M96.9853 101.955L99.2241 96.5415L87.0988 88.8915L81.9931 73.0931C81.7275 72.2711 81.1731 71.5733 80.4327 71.129C79.6923 70.6847 78.8161 70.5239 77.9663 70.6765C77.4518 70.769 76.9639 70.9733 76.537 71.2752C76.1101 71.577 75.7547 71.969 75.4958 72.4234C75.237 72.8779 75.0811 73.3836 75.0391 73.905C74.9971 74.4264 75.07 74.9506 75.2527 75.4407L79.1685 89.1674L96.9853 101.955Z" fill="#A24543"/>
<path d="M68.6276 60.1379C68.6276 62.1719 69.9476 65.3217 71.6126 66.6719C72.7329 67.5804 74.2134 67.5421 74.7842 66.2985C75.3698 65.0228 77.3882 62.0242 80.9408 60.1379C85.6767 57.6234 79.2613 53.3214 74.7842 53.9773C71.4199 54.4703 68.6276 56.7355 68.6276 60.1379Z" fill="#2F2E41"/>
<path d="M71.7992 57.3377C73.8599 57.3377 75.5304 55.6661 75.5304 53.6041C75.5304 51.542 73.8599 49.8704 71.7992 49.8704C69.7384 49.8704 68.0679 51.542 68.0679 53.6041C68.0679 55.6661 69.7384 57.3377 71.7992 57.3377Z" fill="#2F2E41"/>
<path d="M76.0902 52.2972C76.0898 51.3559 75.7339 50.4495 75.0939 49.7597C74.4538 49.0699 73.5768 48.6477 72.6387 48.5776C72.7314 48.5707 72.8241 48.5635 72.9186 48.5635C73.9082 48.5635 74.8572 48.9568 75.557 49.6571C76.2568 50.3573 76.6499 51.3069 76.6499 52.2972C76.6499 53.2874 76.2568 54.2371 75.557 54.9373C74.8572 55.6375 73.9082 56.0309 72.9186 56.0309C72.8241 56.0309 72.7314 56.0236 72.6387 56.0167C73.5768 55.9467 74.4538 55.5244 75.0938 54.8346C75.7339 54.1448 76.0898 53.2385 76.0902 52.2972Z" fill="#2F2E41"/>
<path d="M77.3028 64.0583C77.7665 64.0583 78.1423 63.5568 78.1423 62.9382C78.1423 62.3196 77.7665 61.8181 77.3028 61.8181C76.8391 61.8181 76.4633 62.3196 76.4633 62.9382C76.4633 63.5568 76.8391 64.0583 77.3028 64.0583Z" fill="#FFB8B8"/>
<path d="M183.022 149.713H124.938L112.638 91.5303H102.14V88.9197H114.752L127.052 147.103H183.022V149.713Z" fill="#2E2E2E"/>
<path d="M133.449 160.343C136.537 160.343 139.04 157.838 139.04 154.748C139.04 151.659 136.537 149.154 133.449 149.154C130.362 149.154 127.859 151.659 127.859 154.748C127.859 157.838 130.362 160.343 133.449 160.343Z" fill="#2E2E2E"/>
<path d="M175.195 160.343C178.283 160.343 180.786 157.838 180.786 154.748C180.786 151.659 178.283 149.154 175.195 149.154C172.107 149.154 169.604 151.659 169.604 154.748C169.604 157.838 172.107 160.343 175.195 160.343Z" fill="#2E2E2E"/>
<path d="M181.963 148.484H125.45L115.479 99.1763H191.321C191.707 99.1763 192.09 99.2602 192.441 99.4223C192.793 99.5843 193.105 99.8206 193.357 100.115C193.608 100.409 193.793 100.754 193.898 101.127C194.004 101.5 194.027 101.891 193.967 102.273L184.61 146.219C184.513 146.851 184.193 147.428 183.707 147.844C183.221 148.259 182.602 148.487 181.963 148.484ZM126.064 147.738H181.963C182.424 147.74 182.871 147.576 183.222 147.276C183.572 146.976 183.803 146.56 183.873 146.103L193.231 102.157C193.274 101.881 193.257 101.599 193.181 101.33C193.105 101.061 192.972 100.812 192.79 100.6C192.609 100.387 192.383 100.217 192.13 100.1C191.876 99.9827 191.6 99.9222 191.321 99.9222H116.384L126.064 147.738Z" fill="#2E2E2E"/>
<path d="M136.436 148.326L129.906 99.61L130.642 99.4884L137.172 148.205L136.436 148.326Z" fill="#2E2E2E"/>
<path d="M172.746 147.952L172.01 147.833L178.349 99.4895L179.085 99.6089L172.746 147.952Z" fill="#2E2E2E"/>
<path d="M155.446 99.5492H154.701V148.265H155.446V99.5492Z" fill="#2E2E2E"/>
<path d="M119.287 112.603L119.285 113.349L191.444 113.524L191.446 112.778L119.287 112.603Z" fill="#2E2E2E"/>
<path d="M186.354 135.646L122.96 136.079L122.966 136.825L186.359 136.392L186.354 135.646Z" fill="#2E2E2E"/>
<path d="M103.259 92.0899C105.523 92.0899 107.359 91.088 107.359 89.8521C107.359 88.6162 105.523 87.6143 103.259 87.6143C100.994 87.6143 99.1586 88.6162 99.1586 89.8521C99.1586 91.088 100.994 92.0899 103.259 92.0899Z" fill="#2E2E2E"/>
</g>
<defs>
<clipPath id="clip0">
<rect width="194" height="162" fill="white"/>
</clipPath>
</defs>
</svg>
